<svg xmlns="http://www.w3.org/2000/svg" version="1.1" xmlns:xlink="http://www.w3.org/1999/xlink" xmlns:svgjs="http://svgjs.dev/svgjs" width="1000" height="1000" viewBox="0 0 1000 1000"><rect width="1000" height="1000" fill="#000000"></rect><g transform="matrix(0.7,0,0,0.7,149.5757693019242,282.1265587044535)"><svg viewBox="0 0 396 247" data-background-color="#282634" preserveAspectRatio="xMidYMid meet" height="623" width="1000" xmlns="http://www.w3.org/2000/svg" xmlns:xlink="http://www.w3.org/1999/xlink"><g id="tight-bounds" transform="matrix(1,0,0,1,0.23999342392386325,-0.09999999999999432)"><svg viewBox="0 0 395.52 247.2" height="247.2" width="395.52"><g><svg></svg></g><g><svg viewBox="0 0 395.52 247.2" height="247.2" width="395.52"><g transform="matrix(1,0,0,1,0,101.98556556250954)"><svg viewBox="0 0 395.52 43.228868874980925" height="43.228868874980925" width="395.52"><g><svg viewBox="0 0 395.52 43.228868874980925" height="43.228868874980925" width="395.52"><g><svg viewBox="0 0 395.52 43.228868874980925" height="43.228868874980925" width="395.52"><g><svg viewBox="0 0 395.52 43.228868874980925" height="43.228868874980925" width="395.52"><g><svg viewBox="0 0 395.52 43.228868874980925" height="43.228868874980925" width="395.52"><g><svg viewBox="0 0 395.52 43.228868874980925" height="43.228868874980925" width="395.52"><g transform="matrix(1,0,0,1,0,0)"><svg width="395.52" viewBox="1.9500000476837158 -35.099998474121094 327.5199890136719 35.79999923706055" height="43.228868874980925" data-palette-color="#f5f5f5"><path d="M17.1-35.1L17.1-35.1Q19.7-35.1 21.53-34.95 23.35-34.8 24.88-34.55 26.4-34.3 28-33.85L28-33.85 27.3-26.95Q25.6-27.05 24.15-27.08 22.7-27.1 21.05-27.13 19.4-27.15 17.1-27.15L17.1-27.15Q15.05-27.15 13.88-26.3 12.7-25.45 12.25-23.3 11.8-21.15 11.8-17.25L11.8-17.25Q11.8-13.35 12.25-11.2 12.7-9.05 13.88-8.2 15.05-7.35 17.1-7.35L17.1-7.35Q20.75-7.35 23.18-7.45 25.6-7.55 28.05-7.8L28.05-7.8 28.75-0.95Q26.25-0.1 23.63 0.25 21 0.6 17.1 0.6L17.1 0.6Q11.55 0.6 8.22-1.13 4.9-2.85 3.43-6.75 1.95-10.65 1.95-17.25L1.95-17.25Q1.95-23.85 3.43-27.75 4.9-31.65 8.22-33.38 11.55-35.1 17.1-35.1ZM32.25-24.85L41.35-24.85 41.35-9.1Q41.3-7.95 41.85-7.45 42.4-6.95 43.65-6.95L43.65-6.95Q44.85-6.95 46.12-7.3 47.4-7.65 49.35-8.6L49.35-8.6 49.95-3.95Q47.35-1.6 44.8-0.45 42.25 0.7 39.5 0.7L39.5 0.7Q32.25 0.7 32.25-6.25L32.25-6.25 32.25-24.85ZM48.4-24.85L57.55-24.85 57.55 0 50.4 0 49.3-5 48.4-5.6 48.4-24.85ZM62.64-24.85L69.75-24.85 70.84-19.85 71.75-19.2 71.75 0 62.64 0 62.64-24.85ZM80.44-25.55L81.84-25.55 81.05-17.2 78.64-17.2Q77.14-17.2 75.34-16.9 73.55-16.6 70.8-15.9L70.8-15.9 70.25-20.85Q72.75-23.2 75.37-24.38 78-25.55 80.44-25.55L80.44-25.55ZM84.64-24.85L91.74-24.85 92.84-19.85 93.74-19.2 93.74 0 84.64 0 84.64-24.85ZM102.44-25.55L103.84-25.55 103.04-17.2 100.64-17.2Q99.14-17.2 97.34-16.9 95.54-16.6 92.79-15.9L92.79-15.9 92.24-20.85Q94.74-23.2 97.37-24.38 99.99-25.55 102.44-25.55L102.44-25.55ZM118.89-25.55L118.89-25.55Q125.59-25.55 128.44-23.35 131.29-21.15 131.29-16.85L131.29-16.85Q131.34-13.4 129.39-11.8 127.44-10.2 122.49-10.2L122.49-10.2 108.89-10.2 108.89-14.75 119.94-14.75Q121.64-14.75 122.12-15.25 122.59-15.75 122.59-17.05L122.59-17.05Q122.54-18.5 121.79-19 121.04-19.5 119.19-19.5L119.19-19.5Q117.44-19.55 116.52-19.1 115.59-18.65 115.24-17.3 114.89-15.95 114.89-13.25L114.89-13.25Q114.89-10.55 115.32-9.1 115.74-7.65 116.87-7.05 117.99-6.45 120.04-6.45L120.04-6.45Q121.64-6.45 124.27-6.58 126.89-6.7 129.79-7L129.79-7 130.64-1.5Q129.04-0.7 127.12-0.25 125.19 0.2 123.14 0.4 121.09 0.6 119.04 0.6L119.04 0.6Q114.04 0.6 111.04-0.8 108.04-2.2 106.72-5.08 105.39-7.95 105.39-12.3L105.39-12.3Q105.39-17.2 106.74-20.1 108.09-23 111.07-24.28 114.04-25.55 118.89-25.55ZM153.69-25.55L153.69-25.55Q160.89-25.55 160.89-18.6L160.89-18.6 160.89 0 151.79 0 151.79-15.75Q151.79-16.95 151.31-17.4 150.84-17.85 149.64-17.85L149.64-17.85Q148.39-17.85 146.96-17.5 145.54-17.15 143.39-16.2L143.39-16.2 142.94-20.9Q145.54-23.2 148.29-24.38 151.04-25.55 153.69-25.55ZM135.24-24.85L142.44-24.85 143.54-19.85 144.34-19.2 144.34 0 135.24 0 135.24-24.85ZM168.23-31.55L177.34-31.55 177.34-8.55Q177.34-7.45 177.88-6.95 178.44-6.45 179.73-6.45L179.73-6.45 182.63-6.45 183.63-0.5Q182.63-0.1 181.21 0.15 179.78 0.4 178.34 0.53 176.88 0.65 175.84 0.65L175.84 0.65Q172.34 0.65 170.31-1.18 168.28-3 168.28-6.25L168.28-6.25 168.23-31.55ZM168.78-24.85L183.78-24.85 183.78-19.2 163.98-19.2 163.98-24.6 168.78-24.85ZM220.08-34.5L228.73-34.5 228.73-3.3Q228.73 0 225.48 0L225.48 0 221.28 0Q219.78 0 219.06-0.7 218.33-1.4 217.58-2.75L217.58-2.75 209.13-17.45Q208.53-18.7 207.93-20.15 207.33-21.6 206.93-23.05L206.93-23.05 206.48-23.05Q206.68-21.6 206.81-20.08 206.93-18.55 206.93-17.15L206.93-17.15 206.93 0 198.18 0 198.18-31.2Q198.18-34.5 201.48-34.5L201.48-34.5 205.63-34.5Q207.13-34.5 207.83-33.8 208.53-33.1 209.33-31.75L209.33-31.75 217.43-17.6Q218.13-16.4 218.78-14.95 219.43-13.5 220.03-11.9L220.03-11.9 220.48-11.9Q220.33-13.45 220.23-14.95 220.13-16.45 220.13-17.95L220.13-17.95 220.08-34.5ZM246.83-25.55L246.83-25.55Q253.53-25.55 256.38-23.35 259.23-21.15 259.23-16.85L259.23-16.85Q259.28-13.4 257.33-11.8 255.38-10.2 250.43-10.2L250.43-10.2 236.83-10.2 236.83-14.75 247.88-14.75Q249.58-14.75 250.05-15.25 250.53-15.75 250.53-17.05L250.53-17.05Q250.48-18.5 249.73-19 248.98-19.5 247.13-19.5L247.13-19.5Q245.38-19.55 244.45-19.1 243.53-18.65 243.18-17.3 242.83-15.95 242.83-13.25L242.83-13.25Q242.83-10.55 243.25-9.1 243.68-7.65 244.8-7.05 245.93-6.45 247.98-6.45L247.98-6.45Q249.58-6.45 252.2-6.58 254.83-6.7 257.73-7L257.73-7 258.58-1.5Q256.98-0.7 255.05-0.25 253.13 0.2 251.08 0.4 249.03 0.6 246.98 0.6L246.98 0.6Q241.98 0.6 238.98-0.8 235.98-2.2 234.65-5.08 233.33-7.95 233.33-12.3L233.33-12.3Q233.33-17.2 234.68-20.1 236.03-23 239-24.28 241.98-25.55 246.83-25.55ZM294.03-24.85L303.08-24.85 297.53-2.3Q297.33-1.25 296.5-0.63 295.68 0 294.53 0L294.53 0 287.98 0Q286.78 0 285.88-0.75 284.98-1.5 284.83-2.7L284.83-2.7 282.78-15.25Q282.68-16.35 282.6-17.4 282.53-18.45 282.38-19.5L282.38-19.5 281.73-19.5Q281.68-18.45 281.55-17.4 281.43-16.35 281.28-15.25L281.28-15.25 279.28-2.7Q279.13-1.5 278.23-0.75 277.33 0 276.08 0L276.08 0 269.63 0Q268.53 0 267.68-0.63 266.83-1.25 266.63-2.3L266.63-2.3 261.08-24.85 270.13-24.85 272.63-9.9Q272.78-8.85 272.93-7.8 273.08-6.75 273.13-5.65L273.13-5.65 273.73-5.65Q273.88-6.75 274.03-7.8 274.18-8.85 274.28-9.9L274.28-9.9 276.28-22.2Q276.43-23.35 277.3-24.1 278.18-24.85 279.43-24.85L279.43-24.85 284.73-24.85Q285.93-24.85 286.8-24.1 287.68-23.35 287.83-22.15L287.83-22.15 289.78-9.9Q289.93-8.85 290.1-7.8 290.28-6.75 290.38-5.65L290.38-5.65 290.98-5.65Q291.13-6.75 291.23-7.8 291.33-8.85 291.53-9.9L291.53-9.9 294.03-24.85ZM316.27-25.55L316.27-25.55Q318.22-25.55 320.45-25.4 322.67-25.25 324.82-25.05 326.97-24.85 328.52-24.5L328.52-24.5 327.92-19.1Q325.47-19.1 323-19.13 320.52-19.15 318.22-19.15L318.22-19.15Q316.42-19.15 315.52-19.1 314.62-19.05 314.3-18.82 313.97-18.6 313.97-18L313.97-18Q313.97-17.25 314.62-17 315.27-16.75 317.02-16.25L317.02-16.25 323.12-14.75Q326.37-13.9 327.92-12.28 329.47-10.65 329.47-7.4L329.47-7.4Q329.47-4.3 328.3-2.58 327.12-0.85 324.52-0.15 321.92 0.55 317.77 0.55L317.77 0.55Q316.07 0.55 312.77 0.4 309.47 0.25 305.57-0.4L305.57-0.4 306.12-5.85Q306.87-5.85 308.3-5.83 309.72-5.8 311.47-5.8 313.22-5.8 314.92-5.8L314.92-5.8Q317.37-5.8 318.62-5.88 319.87-5.95 320.3-6.25 320.72-6.55 320.72-7.15L320.72-7.15Q320.72-7.9 319.97-8.18 319.22-8.45 317.32-8.95L317.32-8.95 311.47-10.5Q308.92-11.2 307.55-12.3 306.17-13.4 305.67-14.9 305.17-16.4 305.17-18.35L305.17-18.35Q305.17-20.8 306.22-22.38 307.27-23.95 309.7-24.75 312.12-25.55 316.27-25.55Z" opacity="1" transform="matrix(1,0,0,1,0,0)" fill="#ffffff" class="undefined-text-0" data-fill-palette-color="primary" id="text-0"></path></svg></g></svg></g></svg></g></svg></g></svg></g></svg></g></svg></g><g mask="url(#94a459bc-6a64-4006-9d43-9e4b82c35c73)"><g transform="matrix(3.073826827966394, 0, 0, 3.073826827966394, 75.16148916628704, 1)"><svg xmlns="http://www.w3.org/2000/svg" xmlns:xlink="http://www.w3.org/1999/xlink" version="1.1" x="0" y="0" viewBox="5.412825107574463 5.195577621459961 79.76930236816406 79.77027130126953" enable-background="new 0 0 90 90" xml:space="preserve" height="79.77027130126953" width="79.76930236816406" class="icon-none" data-fill-palette-color="accent" id="none"><path d="M54.624 83.27c-10.792 1.801-22.246-1.411-30.727-8.272-8.062-6.522-13.088-16.744-12.728-27.17 0.349-10.096 5.499-20.182 14.078-25.707 8.769-5.647 20.783-5.62 29.498 0.129 8.154 5.379 12.661 15.857 9.907 25.391-1.424 4.931-4.572 9.475-9.052 12.082-4.663 2.714-10.561 3.268-15.615 1.341-4.544-1.733-8.418-5.448-9.851-10.154-1.47-4.826-0.243-10.416 3.327-14.027 3.452-3.492 8.998-4.743 13.484-2.567 4.259 2.065 6.884 7.148 5.307 11.755-0.85 2.483-2.859 4.611-5.423 5.317-2.69 0.741-5.774-0.221-7.439-2.493-1.629-2.222-1.495-5.503 0.597-7.389 1.054-0.95 2.599-1.429 3.984-1.015 0.41 0.122 2.233 0.566 2.058 1.209 0.087-0.652-1.341-0.82-1.755-0.934-1.29-0.356-2.733 0.004-3.719 0.904-1.739 1.586-1.995 4.459-0.597 6.34 1.417 1.906 4.102 2.721 6.348 1.971 2.287-0.765 3.875-3.013 4.245-5.344 0.746-4.703-3.812-8.759-8.323-8.569-4.774 0.201-8.548 4.373-9.111 8.971-1.056 8.621 8.8 14.488 16.466 12.536 8.546-2.177 12.86-12.372 10.766-20.465-2.34-9.045-11.891-14.664-20.877-14.543-9.785 0.131-18.28 7.23-21.955 16.011-4.038 9.649-2.194 21.17 4.201 29.364 6.485 8.309 16.93 13.113 27.352 13.664 5.766 0.305 11.749-0.537 17.004-3.006 4.955-2.328 8.907-6.258 11.976-10.734 6.303-9.194 8.662-20.938 6.135-31.824C79.845 17.355 61.052 3.689 41.936 5.329 23.164 6.939 7.154 22.991 5.551 41.756c-0.918 10.74 2.777 21.76 9.928 29.817 7.078 7.976 17.424 12.875 28.071 13.353 6.118 0.275 12.303-0.876 17.903-3.359-2.472 0.844-4.993 1.695-7.622 1.838 0.506-0.028 0.982-0.246 1.492-0.242-1.79-0.014-3.465 0.776-5.242 0.87 1.034-0.055 2.103-0.271 3.095-0.566 0.337-0.101 1.458-0.578 1.755-0.242-0.207-0.235-1.358 0.182-1.613 0.243-0.926 0.221-1.953 0.452-2.902 0.51 0.426-0.026 4.536-0.711 4.53-0.755 0.008 0.065-4.022 0.607-4.613 0.769 0.714-0.196 1.505-0.245 2.235-0.367 0.292-0.048 2.164-0.591 2.374-0.402C54.91 83.194 54.661 83.264 54.624 83.27 43.928 85.055 57.114 82.88 54.624 83.27z" fill="#ffffff" data-fill-palette-color="accent"></path></svg></g></g></svg></g><defs><mask id="dddee721-60fb-4552-b2b9-1eb700f12f80"><rect width="640" height="400" fill="white"></rect><rect width="348.05760000000004" height="80.4481641482473" fill="black" x="145.97119999999998" y="159.77591792587634" id="transform-me" transform="matrix(1,0,0,1,-122.24000000000001,-76.4)"></rect></mask><mask id="2c30d50b-ab4f-4d6a-922e-1ebce1b15f80"><rect width="640" height="400" fill="white"></rect><rect width="348.05760000000004" height="80.4481641482473" fill="black" x="145.97119999999998" y="159.77591792587634" id="transform-me" transform="matrix(1,0,0,1,-122.24000000000001,-76.4)"></rect></mask><mask id="1354c1c2-eca9-4873-bf07-893f0639f667"><rect width="640" height="400" fill="white"></rect><rect width="348.05760000000004" height="80.4481641482473" fill="black" x="145.97119999999998" y="159.77591792587634" id="transform-me" transform="matrix(1,0,0,1,-122.24000000000001,-76.4)"></rect></mask><mask id="b0c5155e-d6e4-4206-a9cf-ea71caba5a25"><rect width="640" height="400" fill="white"></rect><rect width="348.05760000000004" height="80.4481641482473" fill="black" x="145.97119999999998" y="159.77591792587634" id="transform-me" transform="matrix(1,0,0,1,-122.24000000000001,-76.4)"></rect></mask><mask id="fd204f1a-f4ec-4983-806f-2bb459e08c90"><rect width="640" height="400" fill="white"></rect><rect width="348.05760000000004" height="80.4481641482473" fill="black" x="145.97119999999998" y="159.77591792587634" id="transform-me" transform="matrix(1,0,0,1,-122.24000000000001,-76.4)"></rect></mask><mask id="e23b2c92-2063-4582-b93a-a6776bfc4e3c"><rect width="640" height="400" fill="white"></rect><rect width="348.05760000000004" height="80.4481641482473" fill="black" x="145.97119999999998" y="159.77591792587634" id="transform-me" transform="matrix(1,0,0,1,-122.24000000000001,-76.4)"></rect></mask><mask id="62fcfa8a-57ee-45b5-a23e-a418f9b42bd8"><rect width="640" height="400" fill="white"></rect><rect width="348.05760000000004" height="50.91157261763273" fill="black" x="145.97119999999998" y="174.54421369118364" id="transform-me" transform="matrix(1,0,0,1,-122.24000000000001,-76.4)"></rect></mask><mask id="6aa064fa-9f3c-4f8a-961c-7ef396c14b78"><rect width="640" height="400" fill="white"></rect><rect width="348.05760000000004" height="50.91157261763273" fill="black" x="145.97119999999998" y="174.54421369118364" id="transform-me" transform="matrix(1,0,0,1,-122.24000000000001,-76.4)"></rect></mask><mask id="05b2d148-c30f-4785-9a9a-f52158725438"><rect width="640" height="400" fill="white"></rect><rect width="348.05760000000004" height="50.91157261763273" fill="black" x="145.97119999999998" y="174.54421369118364" id="transform-me" transform="matrix(1,0,0,1,-122.24000000000001,-76.4)"></rect></mask><mask id="ea0ba48a-83c9-48f0-9472-242b5734ea99"><rect width="640" height="400" fill="white"></rect><rect width="348.05760000000004" height="50.91157261763273" fill="black" x="145.97119999999998" y="174.54421369118364" id="transform-me" transform="matrix(1,0,0,1,-122.24000000000001,-76.4)"></rect></mask><mask id="d7212b12-0004-403a-8188-eb9d236add57"><rect width="640" height="400" fill="white"></rect><rect width="348.05760000000004" height="50.91157261763273" fill="black" x="145.97119999999998" y="174.54421369118364" id="transform-me" transform="matrix(1,0,0,1,-122.24000000000001,-76.4)"></rect></mask><mask id="7218621e-8cec-4dd4-be83-8baa52599df7"><rect width="640" height="400" fill="white"></rect><rect width="348.05760000000004" height="50.91157261763273" fill="black" x="145.97119999999998" y="174.54421369118364" id="transform-me" transform="matrix(1,0,0,1,-122.24000000000001,-76.4)"></rect></mask><mask id="1a8ff84e-b980-4c73-8510-f433eb96ca82"><rect width="640" height="400" fill="white"></rect><rect width="348.05760000000004" height="50.91157261763273" fill="black" x="145.97119999999998" y="174.54421369118364" id="transform-me" transform="matrix(1,0,0,1,-122.24000000000001,-76.4)"></rect></mask><mask id="b138820e-173f-4191-b474-12786645f134"><rect width="640" height="400" fill="white"></rect><rect width="348.05760000000004" height="50.91157261763273" fill="black" x="145.97119999999998" y="174.54421369118364" id="transform-me" transform="matrix(1,0,0,1,-122.24000000000001,-76.4)"></rect></mask><mask id="cc1ec844-1d64-4d6c-a762-0c202db77df1"><rect width="640" height="400" fill="white"></rect><rect width="348.05760000000004" height="50.91157261763273" fill="black" x="145.97119999999998" y="174.54421369118364" id="transform-me" transform="matrix(1,0,0,1,-122.24000000000001,-76.4)"></rect></mask><mask id="7cbacfa0-d4eb-4da2-8830-8f2578a87412"><rect width="640" height="400" fill="white"></rect><rect width="348.05760000000004" height="50.91157261763273" fill="black" x="145.97119999999998" y="174.54421369118364" id="transform-me" transform="matrix(1,0,0,1,-122.24000000000001,-76.4)"></rect></mask><mask id="eb1aa915-9a98-4d47-96f4-2ad6df581f23"><rect width="640" height="400" fill="white"></rect><rect width="348.05760000000004" height="50.91157261763273" fill="black" x="145.97119999999998" y="174.54421369118364" id="transform-me" transform="matrix(1,0,0,1,-122.24000000000001,-76.4)"></rect></mask><mask id="22a2a73c-77a2-4985-b2f3-8bac04a1aaf9"><rect width="640" height="400" fill="white"></rect><rect width="348.05760000000004" height="50.91157261763273" fill="black" x="145.97119999999998" y="174.54421369118364" id="transform-me" transform="matrix(1,0,0,1,-122.24000000000001,-76.4)"></rect></mask><mask id="d915a8a8-cc06-4cc1-ae8c-629e4e872e9f"><rect width="640" height="400" fill="white"></rect><rect width="348.05760000000004" height="50.91157261763273" fill="black" x="145.97119999999998" y="174.54421369118364" id="transform-me" transform="matrix(1,0,0,1,-122.24000000000001,-76.4)"></rect></mask><mask id="3cac96b3-8caa-4af9-b414-845dab9fb35b"><rect width="640" height="400" fill="white"></rect><rect width="348.05760000000004" height="50.91157261763273" fill="black" x="145.97119999999998" y="174.54421369118364" id="transform-me" transform="matrix(1,0,0,1,-122.24000000000001,-76.4)"></rect></mask><mask id="c1c765ea-3ec1-4030-9497-250f8b4664ea"><rect width="640" height="400" fill="white"></rect><rect width="348.05760000000004" height="50.91157261763273" fill="black" x="145.97119999999998" y="174.54421369118364" id="transform-me" transform="matrix(1,0,0,1,-122.24000000000001,-76.4)"></rect></mask><mask id="eaf2f5c5-f14e-4588-9c66-5946de88e864"><rect width="640" height="400" fill="white"></rect><rect width="348.05760000000004" height="50.91157261763273" fill="black" x="145.97119999999998" y="174.54421369118364" id="transform-me" transform="matrix(1,0,0,1,-122.24000000000001,-76.4)"></rect></mask><mask id="3713e8ef-fa7e-450d-a380-a0f4eb8373a8"><rect width="640" height="400" fill="white"></rect><rect width="348.05760000000004" height="50.91157261763273" fill="black" x="145.97119999999998" y="174.54421369118364" id="transform-me" transform="matrix(1,0,0,1,-122.24000000000001,-76.4)"></rect></mask><mask id="da9d6ccd-5064-46d6-81b0-9169b5003863"><rect width="640" height="400" fill="white"></rect><rect width="348.05760000000004" height="50.91157261763273" fill="black" x="145.97119999999998" y="174.54421369118364" id="transform-me" transform="matrix(1,0,0,1,-122.24000000000001,-76.4)"></rect></mask><mask id="35c2ac78-319b-494d-9294-e3e45c4f4be7"><rect width="640" height="400" fill="white"></rect><rect width="348.05760000000004" height="50.91157261763273" fill="black" x="145.97119999999998" y="174.54421369118364" id="transform-me" transform="matrix(1,0,0,1,-122.24000000000001,-76.4)"></rect></mask><mask id="550587cf-447b-4d34-ad69-b881775c892d"><rect width="640" height="400" fill="white"></rect><rect width="348.05760000000004" height="50.91157261763273" fill="black" x="145.97119999999998" y="174.54421369118364" id="transform-me" transform="matrix(1,0,0,1,-122.24000000000001,-76.4)"></rect></mask><mask id="24f85626-df33-4ae2-81b2-da083eda2ed6"><rect width="640" height="400" fill="white"></rect><rect width="348.05760000000004" height="50.91157261763273" fill="black" x="145.97119999999998" y="174.54421369118364" id="transform-me" transform="matrix(1,0,0,1,-122.24000000000001,-76.4)"></rect></mask><mask id="c07b1c49-b6e3-4668-bb42-be0a23e8ffad"><rect width="640" height="400" fill="white"></rect><rect width="348.05760000000004" height="50.91157261763273" fill="black" x="145.97119999999998" y="174.54421369118364" id="transform-me" transform="matrix(1,0,0,1,-122.24000000000001,-76.4)"></rect></mask><mask id="81ab9be0-d9e3-45ff-a1d2-178ed87d68df"><rect width="640" height="400" fill="white"></rect><rect width="348.05760000000004" height="50.91157261763273" fill="black" x="145.97119999999998" y="174.54421369118364" id="transform-me" transform="matrix(1,0,0,1,-122.24000000000001,-76.4)"></rect></mask><mask id="d7567862-21c7-44cf-99db-0499de3a8f79"><rect width="640" height="400" fill="white"></rect><rect width="348.05760000000004" height="50.91157261763273" fill="black" x="145.97119999999998" y="174.54421369118364" id="transform-me" transform="matrix(1,0,0,1,-122.24000000000001,-76.4)"></rect></mask><mask id="6cf566e7-7bed-4113-97b4-3b25d72081aa"><rect width="640" height="400" fill="white"></rect><rect width="348.05760000000004" height="50.91157261763273" fill="black" x="145.97119999999998" y="174.54421369118364" id="transform-me" transform="matrix(1,0,0,1,-122.24000000000001,-76.4)"></rect></mask><mask id="6128e9f3-e2d1-4df0-adb5-eaab5b0268a6"><rect width="640" height="400" fill="white"></rect><rect width="348.05760000000004" height="50.91157261763273" fill="black" x="145.97119999999998" y="174.54421369118364" id="transform-me" transform="matrix(1,0,0,1,-122.24000000000001,-76.4)"></rect></mask><mask id="9abe4bb3-d65d-45cd-9cd3-0fad0d252b96"><rect width="640" height="400" fill="white"></rect><rect width="348.05760000000004" height="50.91157261763273" fill="black" x="145.97119999999998" y="174.54421369118364" id="transform-me" transform="matrix(1,0,0,1,-122.24000000000001,-76.4)"></rect></mask><mask id="d85b37e8-57b3-4541-8582-ce0fd0e52047"><rect width="640" height="400" fill="white"></rect><rect width="348.05760000000004" height="50.91157261763273" fill="black" x="145.97119999999998" y="174.54421369118364" id="transform-me" transform="matrix(1,0,0,1,-122.24000000000001,-76.4)"></rect></mask><mask id="5a114453-95b6-495a-8d31-e8a6ad0d7e06"><rect width="640" height="400" fill="white"></rect><rect width="348.05760000000004" height="50.91157261763273" fill="black" x="145.97119999999998" y="174.54421369118364" id="transform-me" transform="matrix(1,0,0,1,-122.24000000000001,-76.4)"></rect></mask><mask id="24305f08-8b92-4c8b-9f8e-fc80c28b4174"><rect width="640" height="400" fill="white"></rect><rect width="348.05760000000004" height="50.91157261763273" fill="black" x="145.97119999999998" y="174.54421369118364" id="transform-me" transform="matrix(1,0,0,1,-122.24000000000001,-76.4)"></rect></mask><mask id="3f677490-85df-4ebf-a39f-eb4a2ca7f851"><rect width="640" height="400" fill="white"></rect><rect width="348.05760000000004" height="50.91157261763273" fill="black" x="145.97119999999998" y="174.54421369118364" id="transform-me" transform="matrix(1,0,0,1,-122.24000000000001,-76.4)"></rect></mask><mask id="86498420-1985-4360-8155-0b4a8b5fc21d"><rect width="640" height="400" fill="white"></rect><rect width="348.05760000000004" height="50.91157261763273" fill="black" x="145.97119999999998" y="174.54421369118364" id="transform-me" transform="matrix(1,0,0,1,-122.24000000000001,-76.4)"></rect></mask><mask id="ea8d53be-a71f-4b4c-b96a-053b849ce364"><rect width="640" height="400" fill="white"></rect><rect width="348.05760000000004" height="50.91157261763273" fill="black" x="145.97119999999998" y="174.54421369118364" id="transform-me" transform="matrix(1,0,0,1,-122.24000000000001,-76.4)"></rect></mask><mask id="74269bfa-491d-45c6-9fa2-fe31903be244"><rect width="640" height="400" fill="white"></rect><rect width="348.05760000000004" height="50.91157261763273" fill="black" x="145.97119999999998" y="174.54421369118364" id="transform-me" transform="matrix(1,0,0,1,-122.24000000000001,-76.4)"></rect></mask><mask id="9e655c3d-eae6-40cd-ac6f-5f4b55f6b3cd"><rect width="640" height="400" fill="white"></rect><rect width="348.05760000000004" height="50.91157261763273" fill="black" x="145.97119999999998" y="174.54421369118364" id="transform-me" transform="matrix(1,0,0,1,-122.24000000000001,-76.4)"></rect></mask><mask id="107c38e2-608f-4674-90dd-7955244c70d5"><rect width="640" height="400" fill="white"></rect><rect width="348.05760000000004" height="50.91157261763273" fill="black" x="145.97119999999998" y="174.54421369118364" id="transform-me" transform="matrix(1,0,0,1,-122.24000000000001,-76.4)"></rect></mask><mask id="7cbca8d0-cd68-48bc-9a97-66799e0aae1f"><rect width="640" height="400" fill="white"></rect><rect width="348.05760000000004" height="50.91157261763273" fill="black" x="145.97119999999998" y="174.54421369118364" id="transform-me" transform="matrix(1,0,0,1,-122.24000000000001,-76.4)"></rect></mask><mask id="731c37eb-7ccc-4560-838c-f17c6f3ec0c8"><rect width="640" height="400" fill="white"></rect><rect width="348.05760000000004" height="50.91157261763273" fill="black" x="145.97119999999998" y="174.54421369118364" id="transform-me" transform="matrix(1,0,0,1,-122.24000000000001,-76.4)"></rect></mask><mask id="30ac7039-32ee-467f-aabc-5bfd3f88558c"><rect width="640" height="400" fill="white"></rect><rect width="348.05760000000004" height="50.91157261763273" fill="black" x="145.97119999999998" y="174.54421369118364" id="transform-me" transform="matrix(1,0,0,1,-122.24000000000001,-76.4)"></rect></mask><mask id="136a7805-a293-4976-bc40-117cf0decf83"><rect width="640" height="400" fill="white"></rect><rect width="348.05760000000004" height="50.91157261763273" fill="black" x="145.97119999999998" y="174.54421369118364" id="transform-me" transform="matrix(1,0,0,1,-122.24000000000001,-76.4)"></rect></mask><mask id="341ebd63-e51c-4079-966d-b3a8d7e452b9"><rect width="640" height="400" fill="white"></rect><rect width="348.05760000000004" height="50.91157261763273" fill="black" x="145.97119999999998" y="174.54421369118364" id="transform-me" transform="matrix(1,0,0,1,-122.24000000000001,-76.4)"></rect></mask><mask id="22ce019d-6400-45c0-81ac-c2b5456449ea"><rect width="640" height="400" fill="white"></rect><rect width="348.05760000000004" height="50.91157261763273" fill="black" x="145.97119999999998" y="174.54421369118364" id="transform-me" transform="matrix(1,0,0,1,-122.24000000000001,-76.4)"></rect></mask><mask id="5cf1710d-5f1b-416c-9e70-7113d4c08861"><rect width="640" height="400" fill="white"></rect><rect width="348.05760000000004" height="50.91157261763273" fill="black" x="145.97119999999998" y="174.54421369118364" id="transform-me" transform="matrix(1,0,0,1,-122.24000000000001,-76.4)"></rect></mask><mask id="45746e9e-cc38-4c1f-908f-8c683cb52a0b"><rect width="640" height="400" fill="white"></rect><rect width="348.05760000000004" height="50.91157261763273" fill="black" x="145.97119999999998" y="174.54421369118364" id="transform-me" transform="matrix(1,0,0,1,-122.24000000000001,-76.4)"></rect></mask><mask id="bef7d702-ce5e-4296-b587-0d9617c982ec"><rect width="640" height="400" fill="white"></rect><rect width="348.05760000000004" height="50.91157261763273" fill="black" x="145.97119999999998" y="174.54421369118364" id="transform-me" transform="matrix(1,0,0,1,-122.24000000000001,-76.4)"></rect></mask><mask id="747cf80b-f94b-44ca-b504-5d7b2a8e601a"><rect width="640" height="400" fill="white"></rect><rect width="348.05760000000004" height="50.91157261763273" fill="black" x="145.97119999999998" y="174.54421369118364" id="transform-me" transform="matrix(1,0,0,1,-122.24000000000001,-76.4)"></rect></mask><mask id="d4e53132-cb4f-46dd-91f1-d119c8722589"><rect width="640" height="400" fill="white"></rect><rect width="348.05760000000004" height="50.91157261763273" fill="black" x="145.97119999999998" y="174.54421369118364" id="transform-me" transform="matrix(1,0,0,1,-122.24000000000001,-76.4)"></rect></mask><mask id="4c2de463-9f36-4e7d-8cdc-d5abfbbe25a9"><rect width="640" height="400" fill="white"></rect><rect width="348.05760000000004" height="50.91157261763273" fill="black" x="145.97119999999998" y="174.54421369118364" id="transform-me" transform="matrix(1,0,0,1,-122.24000000000001,-76.4)"></rect></mask><mask id="9eae919b-0aad-40f2-a649-4d1dcd3119ae"><rect width="640" height="400" fill="white"></rect><rect width="348.05760000000004" height="50.91157261763273" fill="black" x="145.97119999999998" y="174.54421369118364" id="transform-me" transform="matrix(1,0,0,1,-122.24000000000001,-76.4)"></rect></mask><mask id="af0d20f3-53f3-4d4a-aca0-2d9382dd475e"><rect width="640" height="400" fill="white"></rect><rect width="348.05760000000004" height="50.91157261763273" fill="black" x="145.97119999999998" y="174.54421369118364" id="transform-me" transform="matrix(1,0,0,1,-122.24000000000001,-76.4)"></rect></mask><mask id="ef1f98c1-fb68-4e9f-b985-ab53a42ef2f5"><rect width="640" height="400" fill="white"></rect><rect width="348.05760000000004" height="50.91157261763273" fill="black" x="145.97119999999998" y="174.54421369118364" id="transform-me" transform="matrix(1,0,0,1,-122.24000000000001,-76.4)"></rect></mask><mask id="278a699b-720f-4b7e-b258-dcd67de4b36e"><rect width="640" height="400" fill="white"></rect><rect width="348.05760000000004" height="50.91157261763273" fill="black" x="145.97119999999998" y="174.54421369118364" id="transform-me" transform="matrix(1,0,0,1,-122.24000000000001,-76.4)"></rect></mask><mask id="4922b85c-f898-4954-88a3-f031d0687944"><rect width="640" height="400" fill="white"></rect><rect width="348.05760000000004" height="50.91157261763273" fill="black" x="145.97119999999998" y="174.54421369118364" id="transform-me" transform="matrix(1,0,0,1,-122.24000000000001,-76.4)"></rect></mask><mask id="d181c16e-5519-4894-83f2-8ce5ba9a42a6"><rect width="640" height="400" fill="white"></rect><rect width="348.05760000000004" height="50.91157261763273" fill="black" x="145.97119999999998" y="174.54421369118364" id="transform-me" transform="matrix(1,0,0,1,-122.24000000000001,-76.4)"></rect></mask><mask id="1db84247-a4d8-4d98-858a-54815b4c70d3"><rect width="640" height="400" fill="white"></rect><rect width="348.05760000000004" height="50.91157261763273" fill="black" x="145.97119999999998" y="174.54421369118364" id="transform-me" transform="matrix(1,0,0,1,-122.24000000000001,-76.4)"></rect></mask><mask id="1e82dd62-708b-421d-be77-f75d3b32851c"><rect width="640" height="400" fill="white"></rect><rect width="348.05760000000004" height="50.91157261763273" fill="black" x="145.97119999999998" y="174.54421369118364" id="transform-me" transform="matrix(1,0,0,1,-122.24000000000001,-76.4)"></rect></mask><mask id="e1a30ddf-12e7-4740-89d6-346b2846de8e"><rect width="640" height="400" fill="white"></rect><rect width="348.05760000000004" height="50.91157261763273" fill="black" x="145.97119999999998" y="174.54421369118364" id="transform-me" transform="matrix(1,0,0,1,-122.24000000000001,-76.4)"></rect></mask><mask id="121138f0-4f33-4200-8b04-3ec14f5a5383"><rect width="640" height="400" fill="white"></rect><rect width="348.05760000000004" height="50.91157261763273" fill="black" x="145.97119999999998" y="174.54421369118364" id="transform-me" transform="matrix(1,0,0,1,-122.24000000000001,-76.4)"></rect></mask><mask id="8594aacb-05a9-409d-849c-87abac1352c5"><rect width="640" height="400" fill="white"></rect><rect width="348.05760000000004" height="50.91157261763273" fill="black" x="145.97119999999998" y="174.54421369118364" id="transform-me" transform="matrix(1,0,0,1,-122.24000000000001,-76.4)"></rect></mask><mask id="58ec32c0-371e-4192-826f-988b2f65266a"><rect width="640" height="400" fill="white"></rect><rect width="348.05760000000004" height="50.91157261763273" fill="black" x="145.97119999999998" y="174.54421369118364" id="transform-me" transform="matrix(1,0,0,1,-122.24000000000001,-76.4)"></rect></mask><mask id="d433114a-f564-4955-86af-c1cd233c1b8d"><rect width="640" height="400" fill="white"></rect><rect width="348.05760000000004" height="50.91157261763273" fill="black" x="145.97119999999998" y="174.54421369118364" id="transform-me" transform="matrix(1,0,0,1,-122.24000000000001,-76.4)"></rect></mask><mask id="fed6d84c-de18-4fc2-ba96-354d9884adf5"><rect width="640" height="400" fill="white"></rect><rect width="348.05760000000004" height="50.91157261763273" fill="black" x="145.97119999999998" y="174.54421369118364" id="transform-me" transform="matrix(1,0,0,1,-122.24000000000001,-76.4)"></rect></mask><mask id="c58299c9-15f4-4559-97a2-5be401692ad0"><rect width="640" height="400" fill="white"></rect><rect width="348.05760000000004" height="50.91157261763273" fill="black" x="145.97119999999998" y="174.54421369118364" id="transform-me" transform="matrix(1,0,0,1,-122.24000000000001,-76.4)"></rect></mask><mask id="6a9dc53f-7562-4da5-9fba-0da0fbea7a8e"><rect width="640" height="400" fill="white"></rect><rect width="348.05760000000004" height="50.91157261763273" fill="black" x="145.97119999999998" y="174.54421369118364" id="transform-me" transform="matrix(1,0,0,1,-122.24000000000001,-76.4)"></rect></mask><mask id="ab85b7b1-5d03-46f7-af80-5bbf41fdcdc3"><rect width="640" height="400" fill="white"></rect><rect width="348.05760000000004" height="50.91157261763273" fill="black" x="145.97119999999998" y="174.54421369118364" id="transform-me" transform="matrix(1,0,0,1,-122.24000000000001,-76.4)"></rect></mask><mask id="ed905750-c7eb-4f6e-a62c-3e5247cca1cc"><rect width="640" height="400" fill="white"></rect><rect width="348.05760000000004" height="50.91157261763273" fill="black" x="145.97119999999998" y="174.54421369118364" id="transform-me" transform="matrix(1,0,0,1,-122.24000000000001,-76.4)"></rect></mask><mask id="343d87e0-0b1c-42f5-b1a4-6c235c94aa14"><rect width="640" height="400" fill="white"></rect><rect width="348.05760000000004" height="50.91157261763273" fill="black" x="145.97119999999998" y="174.54421369118364" id="transform-me" transform="matrix(1,0,0,1,-122.24000000000001,-76.4)"></rect></mask><mask id="a2c78950-9566-454d-a3f3-d9cd17b703b1"><rect width="640" height="400" fill="white"></rect><rect width="348.05760000000004" height="50.91157261763273" fill="black" x="145.97119999999998" y="174.54421369118364" id="transform-me" transform="matrix(1,0,0,1,-122.24000000000001,-76.4)"></rect></mask><mask id="8f3c3f55-694f-4982-932c-eda108fc1751"><rect width="640" height="400" fill="white"></rect><rect width="348.05760000000004" height="50.91157261763273" fill="black" x="145.97119999999998" y="174.54421369118364" id="transform-me" transform="matrix(1,0,0,1,-122.24000000000001,-76.4)"></rect></mask><mask id="4b18bea9-9fa4-49ee-b002-84a0641c9a61"><rect width="640" height="400" fill="white"></rect><rect width="348.05760000000004" height="50.91157261763273" fill="black" x="145.97119999999998" y="174.54421369118364" id="transform-me" transform="matrix(1,0,0,1,-122.24000000000001,-76.4)"></rect></mask><mask id="100b6cf5-7a64-4d5a-86f7-17aac7177b83"><rect width="640" height="400" fill="white"></rect><rect width="348.05760000000004" height="50.91157261763273" fill="black" x="145.97119999999998" y="174.54421369118364" id="transform-me" transform="matrix(1,0,0,1,-122.24000000000001,-76.4)"></rect></mask><mask id="b2a118a2-ae69-47ba-8793-e25a4b202a81"><rect width="640" height="400" fill="white"></rect><rect width="348.05760000000004" height="50.91157261763273" fill="black" x="145.97119999999998" y="174.54421369118364" id="transform-me" transform="matrix(1,0,0,1,-122.24000000000001,-76.4)"></rect></mask><mask id="9d2b37bf-2985-42ab-aba7-6ee4dd0ec565"><rect width="640" height="400" fill="white"></rect><rect width="348.05760000000004" height="50.91157261763273" fill="black" x="145.97119999999998" y="174.54421369118364" id="transform-me" transform="matrix(1,0,0,1,-122.24000000000001,-76.4)"></rect></mask><mask id="540c64c0-938e-4826-9cf1-4d4a96e080ed"><rect width="640" height="400" fill="white"></rect><rect width="348.05760000000004" height="50.91157261763273" fill="black" x="145.97119999999998" y="174.54421369118364" id="transform-me" transform="matrix(1,0,0,1,-122.24000000000001,-76.4)"></rect></mask><mask id="7c89cda7-0b70-4d04-850b-9ce2cb31f208"><rect width="640" height="400" fill="white"></rect><rect width="348.05760000000004" height="50.91157261763273" fill="black" x="145.97119999999998" y="174.54421369118364" id="transform-me" transform="matrix(1,0,0,1,-122.24000000000001,-76.4)"></rect></mask><mask id="56a2140b-3df0-449f-bd9d-cddaddbda43f"><rect width="640" height="400" fill="white"></rect><rect width="348.05760000000004" height="50.91157261763273" fill="black" x="145.97119999999998" y="174.54421369118364" id="transform-me" transform="matrix(1,0,0,1,-122.24000000000001,-76.4)"></rect></mask><mask id="91b198c9-a382-4b23-9444-3ad99f969c44"><rect width="640" height="400" fill="white"></rect><rect width="348.05760000000004" height="50.91157261763273" fill="black" x="145.97119999999998" y="174.54421369118364" id="transform-me" transform="matrix(1,0,0,1,-122.24000000000001,-76.4)"></rect></mask><mask id="73bc820b-aa1f-4b06-8f39-85f6233faf4e"><rect width="640" height="400" fill="white"></rect><rect width="348.05760000000004" height="50.91157261763273" fill="black" x="145.97119999999998" y="174.54421369118364" id="transform-me" transform="matrix(1,0,0,1,-122.24000000000001,-76.4)"></rect></mask><mask id="760b7fdf-6cfe-4415-92c4-2bce9e56fafd"><rect width="640" height="400" fill="white"></rect><rect width="348.05760000000004" height="50.91157261763273" fill="black" x="145.97119999999998" y="174.54421369118364" id="transform-me" transform="matrix(1,0,0,1,-122.24000000000001,-76.4)"></rect></mask><mask id="18d497dd-cef8-453a-a8f3-759156170365"><rect width="640" height="400" fill="white"></rect><rect width="348.05760000000004" height="50.91157261763273" fill="black" x="145.97119999999998" y="174.54421369118364" id="transform-me" transform="matrix(1,0,0,1,-122.24000000000001,-76.4)"></rect></mask><mask id="f67f77a2-ced9-45cc-b5ac-52c2b7dffdc9"><rect width="640" height="400" fill="white"></rect><rect width="348.05760000000004" height="50.91157261763273" fill="black" x="145.97119999999998" y="174.54421369118364" id="transform-me" transform="matrix(1,0,0,1,-122.24000000000001,-76.4)"></rect></mask><mask id="082ed972-3c0f-41e5-85ac-f943f596023b"><rect width="640" height="400" fill="white"></rect><rect width="348.05760000000004" height="50.91157261763273" fill="black" x="145.97119999999998" y="174.54421369118364" id="transform-me" transform="matrix(1,0,0,1,-122.24000000000001,-76.4)"></rect></mask><mask id="06e0b814-4acb-4a6a-9c2f-31c986227e4f"><rect width="640" height="400" fill="white"></rect><rect width="348.05760000000004" height="50.91157261763273" fill="black" x="145.97119999999998" y="174.54421369118364" id="transform-me" transform="matrix(1,0,0,1,-122.24000000000001,-76.4)"></rect></mask><mask id="3ac0c89d-45e2-4cb1-81c4-8956552709b5"><rect width="640" height="400" fill="white"></rect><rect width="348.05760000000004" height="50.91157261763273" fill="black" x="145.97119999999998" y="174.54421369118364" id="transform-me" transform="matrix(1,0,0,1,-122.24000000000001,-76.4)"></rect></mask><mask id="ce7e3090-7d53-4542-85ef-14077dae781f"><rect width="640" height="400" fill="white"></rect><rect width="348.05760000000004" height="50.91157261763273" fill="black" x="145.97119999999998" y="174.54421369118364" id="transform-me" transform="matrix(1,0,0,1,-122.24000000000001,-76.4)"></rect></mask><mask id="aaf74ac1-ed15-416d-905b-879e6540b364"><rect width="640" height="400" fill="white"></rect><rect width="348.05760000000004" height="50.91157261763273" fill="black" x="145.97119999999998" y="174.54421369118364" id="transform-me" transform="matrix(1,0,0,1,-122.24000000000001,-76.4)"></rect></mask><mask id="5fb4ab63-b051-4657-bdeb-3e729d6ed375"><rect width="640" height="400" fill="white"></rect><rect width="348.05760000000004" height="50.91157261763273" fill="black" x="145.97119999999998" y="174.54421369118364" id="transform-me" transform="matrix(1,0,0,1,-122.24000000000001,-76.4)"></rect></mask><mask id="5099a66c-c283-4280-89f3-a49f344b5aed"><rect width="640" height="400" fill="white"></rect><rect width="435.072" height="63.63946577204092" fill="black" x="102.464" y="168.18026711397954" id="transform-me" transform="matrix(1,0,0,1,-122.24000000000001,-76.4)"></rect></mask><mask id="f9ae48fa-38b5-4c35-a734-e739f0e0a134"><rect width="640" height="400" fill="white"></rect><rect width="435.072" height="63.63946577204092" fill="black" x="102.464" y="168.18026711397954" id="transform-me" transform="matrix(1,0,0,1,-122.24000000000001,-76.4)"></rect></mask><mask id="3c78bf86-1e84-4a34-a25a-697aa22ef00b"><rect width="640" height="400" fill="white"></rect><rect width="348.05760000000004" height="50.91157261763273" fill="black" x="145.97119999999998" y="174.54421369118364" id="transform-me" transform="matrix(1,0,0,1,-122.24000000000001,-76.4)"></rect></mask><mask id="d95fea1b-4334-4b02-8e0b-fc920df8b93f"><rect width="640" height="400" fill="white"></rect><rect width="174.02880000000002" height="25.455786308816364" fill="black" x="232.98559999999998" y="187.27210684559182" id="transform-me" transform="matrix(1,0,0,1,-122.24000000000001,-76.4)"></rect></mask><mask id="2feddc9b-c43d-477e-ada3-29b936d90f01"><rect width="640" height="400" fill="white"></rect><rect width="435.072" height="63.63946577204092" fill="black" x="102.464" y="168.18026711397954" id="transform-me" transform="matrix(1,0,0,1,-122.24000000000001,-76.4)"></rect></mask><mask id="41d5b743-d542-40c6-8017-a16b87000a97"><rect width="640" height="400" fill="white"></rect><rect width="435.072" height="63.63946577204092" fill="black" x="102.464" y="168.18026711397954" id="transform-me" transform="matrix(1,0,0,1,-122.24000000000001,-76.4)"></rect></mask><mask id="eedd3cdf-e656-4ae4-941e-8562e1581e35"><rect width="640" height="400" fill="white"></rect><rect width="348.05760000000004" height="50.91157261763273" fill="black" x="145.97119999999998" y="174.54421369118364" id="transform-me" transform="matrix(1,0,0,1,-122.24000000000001,-76.4)"></rect></mask><mask id="ce81ce70-d0fa-4f99-aa44-3b62c1b394fa"><rect width="640" height="400" fill="white"></rect><rect width="232.0384" height="33.941048411755155" fill="black" x="203.9808" y="183.02947579412242" id="transform-me" transform="matrix(1,0,0,1,-122.24000000000001,-76.4)"></rect></mask><mask id="94a459bc-6a64-4006-9d43-9e4b82c35c73"><rect width="640" height="400" fill="white"></rect><rect width="435.072" height="63.63946577204092" fill="black" x="102.464" y="168.18026711397954" id="transform-me" transform="matrix(1,0,0,1,-122.24000000000001,-76.4)"></rect></mask></defs></svg><rect width="395.52" height="247.2" fill="none" stroke="none" visibility="hidden"></rect></g></svg></g></svg>