<svg xmlns="http://www.w3.org/2000/svg" version="1.1" xmlns:xlink="http://www.w3.org/1999/xlink" xmlns:svgjs="http://svgjs.dev/svgjs" width="1000" height="1000" viewBox="0 0 1000 1000"><rect width="1000" height="1000" fill="#ffffff"></rect><g transform="matrix(0.7,0,0,0.7,149.57575757575756,282.1265587044535)"><svg viewBox="0 0 396 247" data-background-color="#fafafa" preserveAspectRatio="xMidYMid meet" height="623" width="1000" xmlns="http://www.w3.org/2000/svg" xmlns:xlink="http://www.w3.org/1999/xlink"><g id="tight-bounds" transform="matrix(1,0,0,1,0.2400000000000091,-0.09999999999999432)"><svg viewBox="0 0 395.52 247.2" height="247.2" width="395.52"><g><svg></svg></g><g><svg viewBox="0 0 395.52 247.2" height="247.2" width="395.52"><g><g><path xmlns="http://www.w3.org/2000/svg" d="M101.576 228.72c-19.994 0-37.504-4.504-52.53-13.511-15.066-8.967-26.841-21.428-35.322-37.383-4.324-8.133-7.546-16.922-9.666-26.366h49.278c0.874 3.108 1.867 6.141 2.981 9.099 5.13 13.733 12.744 24.579 22.842 32.536 10.098 7.998 22.62 11.996 37.564 11.996 8.28 0 16.823-1.313 25.629-3.938 8.765-2.625 17.288-6.362 25.568-11.209 1.616 1.414 3.09 3.332 4.423 5.756 1.293 2.424 2.141 4.847 2.545 7.27-9.492 7.675-20.135 13.875-31.93 18.601-11.835 4.766-25.629 7.149-41.382 7.149zM9.482 77.068c5.655-13.006 13.329-23.852 23.024-32.536 9.694-8.684 20.701-15.208 33.02-19.57 12.32-4.322 25.043-6.483 38.171-6.482 11.916 0 23.387 1.353 34.414 4.059 10.987 2.747 21.832 6.644 32.536 11.693-1.212 6.867-2.06 14.339-2.545 22.418-0.525 8.078-0.788 16.258-0.788 24.538-2.625 1.212-6.16 2.121-10.602 2.727-4.443 0.606-8.684 0.909-12.724 0.909-0.202-12.32-1.919-22.014-5.15-29.083-3.231-7.069-7.675-12.017-13.329-14.844-5.655-2.827-12.32-4.241-19.994-4.241-10.3 0-19.085 2.161-26.356 6.483-7.271 4.362-13.127 10.179-17.571 17.449-4.443 7.271-7.715 15.551-9.815 24.841-0.78 3.383-1.417 6.82-1.913 10.311l-46.254 0c1.397-6.633 3.356-12.857 5.876-18.672zM217.603 47.865c-2.222-3.231-4.645-5.413-7.271-6.544-2.625-1.091-6.867-1.939-12.723-2.544-0.606-2.827-1.05-5.857-1.333-9.089-0.323-3.231-0.485-6.362-0.485-9.391 2.222 0.202 5.291 0.343 9.209 0.424 3.958 0.121 7.957 0.222 11.997 0.303 4.039 0.121 7.473 0.182 10.3 0.182 4.645 0 9.593-0.061 14.844-0.182 5.251-0.081 9.492-0.323 12.723-0.727l56.053 75.443-57.328 0-13.872-18.455 0 18.455h-19.388l0-44.248zM354.835 154.85l0-3.39 19.085 0v74.534c-2.827 1.01-5.958 1.676-9.391 1.999-3.433 0.283-7.17 0.424-11.209 0.425l-57.847-76.958h56.843zM354.835 82.097c0-11.31-0.606-19.994-1.818-26.053-1.212-6.059-3.534-10.361-6.968-12.905-3.433-2.504-8.28-3.958-14.541-4.362-0.808-3.433-1.373-6.705-1.696-9.816-0.283-3.151-0.424-6.039-0.424-8.664 3.029 0.202 6.624 0.343 10.784 0.424 4.12 0.121 8.301 0.222 12.542 0.303 4.241 0.121 7.977 0.182 11.209 0.182 4.645 0 9.957-0.101 15.935-0.303 5.938-0.202 10.825-0.404 14.662-0.606 0 3.029-0.101 6.099-0.303 9.21-0.202 3.151-0.707 6.241-1.515 9.27-5.049 0.404-8.886 1.818-11.511 4.241-2.625 2.424-4.484 6.665-5.574 12.723-1.131 6.059-1.696 14.844-1.697 26.356v13.643l-19.085 0zM239.717 164.497c0 11.31 0.606 20.095 1.818 26.356 1.212 6.261 3.494 10.643 6.846 13.147 3.312 2.545 7.897 4.019 13.754 4.423 0.808 2.424 1.313 5.251 1.515 8.483 0.202 3.231 0.303 6.564 0.303 9.997-2.827-0.202-6.261-0.343-10.3-0.424-4.039-0.121-8.078-0.222-12.118-0.303-4.039-0.121-7.675-0.182-10.906-0.182-3.231 0-7.109 0.061-11.633 0.182-4.564 0.081-8.967 0.182-13.208 0.303-4.241 0.081-7.574 0.222-9.997 0.424 0-3.837 0.101-7.271 0.303-10.3 0.202-3.029 0.707-5.756 1.515-8.18 5.857-0.404 10.462-1.878 13.814-4.423 3.312-2.504 5.635-6.887 6.967-13.147 1.293-6.261 1.939-15.046 1.939-26.356l0-13.037h19.388z" fill="#130912" fill-rule="nonzero" stroke="none" stroke-width="1" stroke-linecap="butt" stroke-linejoin="miter" stroke-miterlimit="10" stroke-dasharray="" stroke-dashoffset="0" font-family="none" font-weight="none" font-size="none" text-anchor="none" style="mix-blend-mode: normal" data-fill-palette-color="tertiary"></path></g></g><g transform="matrix(1,0,0,1,0,102.03409176618479)"><svg viewBox="0 0 395.52 43.13181646763042" height="43.13181646763042" width="395.52"><g><svg viewBox="0 0 395.52 43.13181646763042" height="43.13181646763042" width="395.52"><g><svg viewBox="0 0 395.52 43.13181646763042" height="43.13181646763042" width="395.52"><g><svg viewBox="0 0 395.52 43.13181646763042" height="43.13181646763042" width="395.52"><g><svg viewBox="0 0 395.52 43.13181646763042" height="43.13181646763042" width="395.52"><g><svg viewBox="0 0 395.52 43.13181646763042" height="43.13181646763042" width="395.52"><g transform="matrix(1,0,0,1,0,0)"><svg width="395.52" viewBox="1.75 -34.25 318.1700134277344 34.70000076293945" height="43.13181646763042" data-palette-color="#130912"><path d="M18.35 0.45L18.35 0.45Q13.4 0.45 9.68-1.78 5.95-4 3.85-7.95 1.75-11.9 1.75-17.1L1.75-17.1Q1.75-21.35 3.15-24.58 4.55-27.8 6.95-29.95 9.35-32.1 12.4-33.18 15.45-34.25 18.7-34.25L18.7-34.25Q21.65-34.25 24.38-33.58 27.1-32.9 29.75-31.65L29.75-31.65Q29.45-29.95 29.33-27.95 29.2-25.95 29.2-23.9L29.2-23.9Q28.55-23.6 27.45-23.45 26.35-23.3 25.35-23.3L25.35-23.3Q25.3-26.35 24.5-28.1 23.7-29.85 22.3-30.55 20.9-31.25 19-31.25L19-31.25Q16.45-31.25 14.65-30.18 12.85-29.1 11.75-27.3 10.65-25.5 10.13-23.2 9.6-20.9 9.6-18.4L9.6-18.4Q9.6-14.2 10.88-10.8 12.15-7.4 14.65-5.43 17.15-3.45 20.85-3.45L20.85-3.45Q22.9-3.45 25.08-4.1 27.25-4.75 29.3-5.95L29.3-5.95Q29.7-5.6 30.03-5 30.35-4.4 30.45-3.8L30.45-3.8Q28.1-1.9 25.18-0.73 22.25 0.45 18.35 0.45ZM43.65 0.3L43.65 0.3Q40.1 0.3 38.1-1.73 36.1-3.75 36.1-8.9L36.1-8.9 36.1-14.8Q36.1-16.95 35.6-17.82 35.1-18.7 32.9-18.85L32.9-18.85Q32.9-19.6 33.02-20.33 33.15-21.05 33.45-21.7L33.45-21.7Q36.1-21.7 38.37-22.23 40.65-22.75 41.8-23.35L41.8-23.35Q42.5-23.1 42.87-22.48 43.25-21.85 43.25-20.65L43.25-20.65 43.25-10.1Q43.25-6.75 43.97-5.3 44.7-3.85 46.35-3.85L46.35-3.85Q48.35-3.85 49.8-5.83 51.25-7.8 51.25-11.85L51.25-11.85 51.25-15.05Q51.25-17.2 50.62-18.07 50-18.95 47.65-19.1L47.65-19.1Q47.65-19.85 47.72-20.58 47.8-21.3 48.15-21.95L48.15-21.95Q51-21.95 53.4-22.38 55.8-22.8 56.95-23.35L56.95-23.35Q57.65-23.1 58.02-22.48 58.4-21.85 58.4-20.65L58.4-20.65 58.4-6.7 52.2-4.9Q51.9-4 51.42-3.3 50.95-2.6 50.4-2.05L50.4-2.05Q49.25-1 47.6-0.35 45.95 0.3 43.65 0.3ZM53.45 0.45L53.45 0.45Q52.65 0.1 52.27-0.5 51.9-1.1 51.9-2.4L51.9-2.4Q51.9-3.2 52.05-4.28 52.2-5.35 52.5-6.5L52.5-6.5 58.4-8.35Q58.4-6.8 58.6-5.93 58.8-5.05 59.42-4.7 60.05-4.35 61.35-4.35L61.35-4.35Q61.45-3.55 61.35-2.73 61.25-1.9 60.9-1.2L60.9-1.2Q59.1-1.15 57.1-0.73 55.1-0.3 53.45 0.45ZM75.2-11.35L75.2-8.65Q75.2-6.5 75.67-5.3 76.15-4.1 77.22-3.58 78.3-3.05 80.15-2.9L80.15-2.9Q80.4-2.3 80.45-1.5 80.5-0.7 80.5 0.15L80.5 0.15Q79.65 0.1 78.37 0.08 77.09 0.05 75.65 0.03 74.2 0 72.8 0L72.8 0Q70.55 0 68.15 0.03 65.75 0.05 64.34 0.15L64.34 0.15Q64.34-0.9 64.42-1.63 64.5-2.35 64.65-2.9L64.65-2.9Q66-3 66.75-3.4 67.5-3.8 67.77-4.88 68.05-5.95 68.05-7.9L68.05-7.9 68.05-11.35 75.2-11.35ZM74.25-15.1L75.2-14.75 75.2-10.45 68.05-10.45 68.05-15.9 75.2-20.65Q75.2-19.4 74.92-18.13 74.65-16.85 74.25-15.1L74.25-15.1ZM75.2-11.25L74.09-14.9Q74.5-16.05 74.9-17.2 75.3-18.35 75.65-18.95L75.65-18.95Q76.75-20.7 78.34-21.85 79.95-23 81.95-23L81.95-23Q83.9-23 85.5-21.8L85.5-21.8Q85.34-20.8 85.22-19.53 85.09-18.25 85.07-16.95 85.05-15.65 85.09-14.55L85.09-14.55Q84.34-14.25 83.12-14.1 81.9-13.95 80.95-13.95L80.95-13.95Q80.9-15.95 80.34-16.73 79.8-17.5 78.8-17.5L78.8-17.5Q78.05-17.5 77.2-16.63 76.34-15.75 75.77-14.35 75.2-12.95 75.2-11.25L75.2-11.25ZM75.2-20.65L68.05-10.45 68.05-14.8Q68.05-16.25 67.82-17.07 67.59-17.9 66.82-18.32 66.05-18.75 64.4-18.85L64.4-18.85Q64.4-19.6 64.52-20.33 64.65-21.05 65-21.7L65-21.7Q67.65-21.7 70.12-22.23 72.59-22.75 73.75-23.35L73.75-23.35Q74.45-23.1 74.82-22.48 75.2-21.85 75.2-20.65L75.2-20.65ZM98.94-11.35L98.94-8.65Q98.94-6.5 99.42-5.3 99.89-4.1 100.97-3.58 102.04-3.05 103.89-2.9L103.89-2.9Q104.14-2.3 104.19-1.5 104.24-0.7 104.24 0.15L104.24 0.15Q103.39 0.1 102.12 0.08 100.84 0.05 99.39 0.03 97.94 0 96.54 0L96.54 0Q94.29 0 91.89 0.03 89.49 0.05 88.09 0.15L88.09 0.15Q88.09-0.9 88.17-1.63 88.24-2.35 88.39-2.9L88.39-2.9Q89.74-3 90.49-3.4 91.24-3.8 91.52-4.88 91.79-5.95 91.79-7.9L91.79-7.9 91.79-11.35 98.94-11.35ZM97.99-15.1L98.94-14.75 98.94-10.45 91.79-10.45 91.79-15.9 98.94-20.65Q98.94-19.4 98.67-18.13 98.39-16.85 97.99-15.1L97.99-15.1ZM98.94-11.25L97.84-14.9Q98.24-16.05 98.64-17.2 99.04-18.35 99.39-18.95L99.39-18.95Q100.49-20.7 102.09-21.85 103.69-23 105.69-23L105.69-23Q107.64-23 109.24-21.8L109.24-21.8Q109.09-20.8 108.97-19.53 108.84-18.25 108.82-16.95 108.79-15.65 108.84-14.55L108.84-14.55Q108.09-14.25 106.87-14.1 105.64-13.95 104.69-13.95L104.69-13.95Q104.64-15.95 104.09-16.73 103.54-17.5 102.54-17.5L102.54-17.5Q101.79-17.5 100.94-16.63 100.09-15.75 99.52-14.35 98.94-12.95 98.94-11.25L98.94-11.25ZM98.94-20.65L91.79-10.45 91.79-14.8Q91.79-16.25 91.57-17.07 91.34-17.9 90.57-18.32 89.79-18.75 88.14-18.85L88.14-18.85Q88.14-19.6 88.27-20.33 88.39-21.05 88.74-21.7L88.74-21.7Q91.39-21.7 93.87-22.23 96.34-22.75 97.49-23.35L97.49-23.35Q98.19-23.1 98.57-22.48 98.94-21.85 98.94-20.65L98.94-20.65ZM123.89 0.45L123.89 0.45Q119.69 0.45 117.04-1.1 114.39-2.65 113.14-5.33 111.89-8 111.89-11.3L111.89-11.3Q111.89-14.85 113.29-17.55 114.69-20.25 117.32-21.8 119.94-23.35 123.44-23.35L123.44-23.35Q127.04-23.35 129.32-21.98 131.59-20.6 132.69-18.18 133.79-15.75 133.94-12.7L133.94-12.7Q133.59-11.25 132.69-10.35L132.69-10.35Q131.44-10.35 129.64-10.33 127.84-10.3 125.77-10.28 123.69-10.25 121.57-10.18 119.44-10.1 117.54-9.95L117.54-9.95 117.54-13.25 127.14-13.25Q127.14-16.6 126.17-18.43 125.19-20.25 123.34-20.25L123.34-20.25Q122.14-20.25 121.19-19.48 120.24-18.7 119.69-17.03 119.14-15.35 119.14-12.65L119.14-12.65Q119.14-10.1 119.79-7.95 120.44-5.8 121.97-4.55 123.49-3.3 126.14-3.3L126.14-3.3Q127.84-3.3 129.54-3.95 131.24-4.6 132.44-5.65L132.44-5.65Q132.89-5.4 133.29-4.65 133.69-3.9 133.69-3.15L133.69-3.15Q131.84-1.3 129.44-0.43 127.04 0.45 123.89 0.45ZM148.24-20.65L141.09-10.45 141.09-14.8Q141.09-16.25 140.86-17.07 140.64-17.9 139.86-18.32 139.09-18.75 137.44-18.85L137.44-18.85Q137.44-19.6 137.56-20.33 137.69-21.05 138.04-21.7L138.04-21.7Q140.69-21.7 143.16-22.23 145.64-22.75 146.79-23.35L146.79-23.35Q147.49-23.1 147.86-22.48 148.24-21.85 148.24-20.65L148.24-20.65ZM164.04-14.95L164.04-7.25Q164.04-4.75 164.64-3.83 165.24-2.9 166.59-2.9L166.59-2.9Q166.84-2.3 166.91-1.58 166.99-0.85 166.99 0.15L166.99 0.15Q165.89 0.1 164.16 0.05 162.44 0 160.79 0L160.79 0Q159.69 0 158.31 0.03 156.94 0.05 155.69 0.08 154.44 0.1 153.69 0.15L153.69 0.15Q153.69-0.75 153.74-1.5 153.79-2.25 154.04-2.9L154.04-2.9Q155.44-2.9 156.19-3.9 156.94-4.9 156.94-7.55L156.94-7.55 156.94-13Q156.94-16.15 155.94-17.38 154.94-18.6 153.09-18.6L153.09-18.6Q151.89-18.6 150.76-17.68 149.64-16.75 148.94-14.98 148.24-13.2 148.24-10.55L148.24-10.55 148.24-7.25Q148.24-4.7 148.91-3.8 149.59-2.9 151.09-2.9L151.09-2.9Q151.39-2.2 151.44-1.5 151.49-0.8 151.49 0.15L151.49 0.15Q150.79 0.1 149.59 0.08 148.39 0.05 147.11 0.03 145.84 0 144.64 0L144.64 0Q143.54 0 142.14 0.03 140.74 0.05 139.44 0.08 138.14 0.1 137.39 0.15L137.39 0.15Q137.39-0.8 137.49-1.6 137.59-2.4 137.79-2.9L137.79-2.9Q139.74-2.9 140.41-3.83 141.09-4.75 141.09-7.25L141.09-7.25 141.09-14.8 148.24-20.65Q148.24-20.05 148.11-19.28 147.99-18.5 147.74-17.65L147.74-17.65Q148.04-18.25 148.34-18.85 148.64-19.45 149.14-20L149.14-20Q150.14-21.15 151.94-22.13 153.74-23.1 156.09-23.1L156.09-23.1Q158.19-23.1 160.01-22.3 161.84-21.5 162.94-19.7 164.04-17.9 164.04-14.95L164.04-14.95ZM179.89 0.45L179.89 0.45Q176.44 0.45 174.69-1.35 172.94-3.15 172.94-7.4L172.94-7.4 172.94-18.65Q172.14-18.95 171.29-19.1 170.44-19.25 169.24-19.3L169.24-19.3Q169.24-20.2 169.36-20.9 169.49-21.6 169.84-22.4L169.84-22.4 172.94-22.4 172.94-28.55Q174.59-28.8 176.19-29.48 177.79-30.15 178.84-31L178.84-31Q179.54-30.7 179.79-30.15 180.04-29.6 180.04-27.95L180.04-27.95 180.04-22.4 186.19-22.4Q186.19-21.5 186.09-20.73 185.99-19.95 185.74-19.25L185.74-19.25Q184.04-19.25 182.64-19.05 181.24-18.85 180.04-18.5L180.04-18.5 180.04-8.2Q180.04-6.25 180.31-5.13 180.59-4 181.19-3.55 181.79-3.1 182.64-3.1L182.64-3.1Q183.49-3.1 184.26-3.33 185.04-3.55 185.74-3.95L185.74-3.95Q186.44-3.05 186.49-1.5L186.49-1.5Q185.49-0.65 183.64-0.1 181.79 0.45 179.89 0.45ZM226.13-10.8L225.18 0.4 202.78-29.4Q202.23-30.2 201.58-30.48 200.93-30.75 199.48-30.9L199.48-30.9Q199.33-31.6 199.26-32.4 199.18-33.2 199.18-33.95L199.18-33.95Q199.73-33.9 200.71-33.88 201.68-33.85 202.68-33.83 203.68-33.8 204.38-33.8L204.38-33.8Q205.53-33.8 206.83-33.83 208.13-33.85 208.93-33.95L208.93-33.95 226.13-10.8ZM199.18 0.15L199.18 0.15Q199.18-0.8 199.23-1.55 199.28-2.3 199.48-2.9L199.48-2.9Q200.93-3 201.76-3.63 202.58-4.25 202.91-5.8 203.23-7.35 203.23-10.15L203.23-10.15 203.23-30.65 206.43-30.4 206.43-10.15Q206.43-7.35 206.73-5.8 207.03-4.25 207.86-3.63 208.68-3 210.13-2.9L210.13-2.9Q210.33-2.3 210.38-1.5 210.43-0.7 210.43 0.15L210.43 0.15Q209.73 0.1 208.73 0.08 207.73 0.05 206.73 0.03 205.73 0 204.93 0L204.93 0Q204.13 0 203.01 0.03 201.88 0.05 200.83 0.08 199.78 0.1 199.18 0.15ZM225.18 0.4L225.18 0.4 225.43-6.95 225.43-23.75Q225.43-26.55 225.13-28.05 224.83-29.55 223.98-30.18 223.13-30.8 221.58-30.9L221.58-30.9Q221.38-31.75 221.31-32.52 221.23-33.3 221.23-33.95L221.23-33.95Q221.98-33.9 223.01-33.88 224.03-33.85 225.08-33.83 226.13-33.8 226.93-33.8L226.93-33.8Q228.08-33.8 229.56-33.85 231.03-33.9 231.98-33.95L231.98-33.95Q231.98-33.2 231.93-32.43 231.88-31.65 231.68-30.9L231.68-30.9Q230.43-30.8 229.78-30.2 229.13-29.6 228.86-28.1 228.58-26.6 228.58-23.75L228.58-23.75 228.58 0Q227.88 0.25 227.03 0.33 226.18 0.4 225.18 0.4ZM247.48 0.45L247.48 0.45Q243.28 0.45 240.63-1.1 237.98-2.65 236.73-5.33 235.48-8 235.48-11.3L235.48-11.3Q235.48-14.85 236.88-17.55 238.28-20.25 240.9-21.8 243.53-23.35 247.03-23.35L247.03-23.35Q250.63-23.35 252.9-21.98 255.18-20.6 256.28-18.18 257.38-15.75 257.53-12.7L257.53-12.7Q257.18-11.25 256.28-10.35L256.28-10.35Q255.03-10.35 253.23-10.33 251.43-10.3 249.35-10.28 247.28-10.25 245.15-10.18 243.03-10.1 241.13-9.95L241.13-9.95 241.13-13.25 250.73-13.25Q250.73-16.6 249.75-18.43 248.78-20.25 246.93-20.25L246.93-20.25Q245.73-20.25 244.78-19.48 243.83-18.7 243.28-17.03 242.73-15.35 242.73-12.65L242.73-12.65Q242.73-10.1 243.38-7.95 244.03-5.8 245.55-4.55 247.08-3.3 249.73-3.3L249.73-3.3Q251.43-3.3 253.13-3.95 254.83-4.6 256.03-5.65L256.03-5.65Q256.48-5.4 256.88-4.65 257.28-3.9 257.28-3.15L257.28-3.15Q255.43-1.3 253.03-0.43 250.63 0.45 247.48 0.45ZM269.43 0.45L269.43 0.45Q268.68-1.85 267.85-4.33 267.03-6.8 266.15-9.18 265.28-11.55 264.55-13.6 263.83-15.65 263.28-17.05L263.28-17.05Q262.73-18.45 262.08-19.1 261.43-19.75 260.38-19.95L260.38-19.95Q260.18-20.55 260.03-21.4 259.88-22.25 259.88-23.05L259.88-23.05Q261.38-23 262.85-22.95 264.33-22.9 266.03-22.9L266.03-22.9Q267.93-22.9 269.73-22.95 271.53-23 273.08-23.05L273.08-23.05Q273.08-22.25 272.98-21.4 272.88-20.55 272.68-20L272.68-20Q271.48-19.9 271.03-19.6 270.58-19.3 270.63-18.63 270.68-17.95 271.08-16.7L271.08-16.7Q271.88-14.25 272.73-11.38 273.58-8.5 274.18-5.35L274.18-5.35 272.58-5.35 279.58-22.8Q280.18-23.05 281.03-23.1 281.88-23.15 282.63-23.15L282.63-23.15Q284.43-19.05 286.25-14.4 288.08-9.75 289.68-5.25L289.68-5.25 287.98-5.15 290.98-15.05Q291.53-16.85 291.43-17.85 291.33-18.85 290.75-19.33 290.18-19.8 289.13-20L289.13-20Q288.88-20.7 288.75-21.48 288.63-22.25 288.63-23.05L288.63-23.05Q289.58-23 290.75-22.95 291.93-22.9 293.23-22.9L293.23-22.9Q294.68-22.9 295.83-22.95 296.98-23 297.98-23.05L297.98-23.05Q297.98-22.3 297.85-21.45 297.73-20.6 297.48-20L297.48-20Q296.63-19.8 296.1-19.35 295.58-18.9 295.15-17.95 294.73-17 294.13-15.3L294.13-15.3 289.08 0Q288.63 0.2 287.9 0.3 287.18 0.4 286.4 0.43 285.63 0.45 285.03 0.45L285.03 0.45Q283.78-2.55 282.65-5.25 281.53-7.95 280.55-10.48 279.58-13 278.78-15.5L278.78-15.5 280.78-16.9 273.48 0Q273.08 0.2 272.35 0.3 271.63 0.4 270.85 0.43 270.08 0.45 269.43 0.45ZM318.02-21.75L318.02-21.75Q317.97-20.5 318-19.13 318.02-17.75 318.22-16.45L318.22-16.45Q317.52-16.05 316.52-15.8 315.52-15.55 314.42-15.55L314.42-15.55Q314.32-16.85 313.75-17.93 313.17-19 312.15-19.68 311.12-20.35 309.62-20.35L309.62-20.35Q308.47-20.35 307.77-19.75 307.07-19.15 307.07-18.2L307.07-18.2Q307.07-17.5 307.42-16.93 307.77-16.35 308.95-15.68 310.12-15 312.52-14L312.52-14Q315.37-12.85 316.97-11.83 318.57-10.8 319.25-9.58 319.92-8.35 319.92-6.65L319.92-6.65Q319.92-4.4 318.65-2.8 317.37-1.2 315.02-0.38 312.67 0.45 309.47 0.45L309.47 0.45Q306.37 0.45 304.37 0 302.37-0.45 300.47-1.3L300.47-1.3Q300.57-2.25 300.62-3.38 300.67-4.5 300.65-5.6 300.62-6.7 300.52-7.5L300.52-7.5Q301.22-7.95 302.32-8.15 303.42-8.35 304.42-8.35L304.42-8.35Q304.72-5.55 306.05-4.15 307.37-2.75 309.42-2.75L309.42-2.75Q310.92-2.75 311.82-3.43 312.72-4.1 312.72-5.25L312.72-5.25Q312.72-6.05 312.35-6.63 311.97-7.2 310.95-7.8 309.92-8.4 307.92-9.2L307.92-9.2Q305.57-10.1 303.97-11.05 302.37-12 301.52-13.38 300.67-14.75 300.67-16.9L300.67-16.9Q300.67-18.55 301.42-19.75 302.17-20.95 303.5-21.75 304.82-22.55 306.5-22.95 308.17-23.35 310.02-23.35L310.02-23.35Q312.67-23.35 314.52-22.95 316.37-22.55 318.02-21.75Z" opacity="1" transform="matrix(1,0,0,1,0,0)" fill="#000000" class="undefined-text-0" data-fill-palette-color="primary" id="text-0"></path></svg></g></svg></g></svg></g></svg></g></svg></g></svg></g></svg></g></svg></g><defs></defs></svg><rect width="395.52" height="247.2" fill="none" stroke="none" visibility="hidden"></rect></g></svg></g></svg>